# xmcd
#
# Track frame offsets:
#	150
#	10742
#	22132
#	35365
#	48930
#	59980
#	69222
#	81445
#	92000
#	103697
#	115455
#	132075
#	144077
#	158015
#	176340
#
# Disc length: 2468 seconds
#
# Revision: 5
# Processed by: cddbd v1.5.2PL0 Copyright (c) Steve Scherf et al.
# Submitted via: audiograbber 1.83.01
#
DISCID=c209a20f
DTITLE=MS® - Idolos Infantiles Chabelo Y Cepillin
DYEAR=1987
DGENRE=Pop
TTITLE0=Cepillin - Un Dia Con Mama
TTITLE1=Cepillin - En Un Bosque De La China
TTITLE2=Chabelo - Aladino
TTITLE3=Cepillin - Vamos A La Escuela
TTITLE4=Cepillin - Cepillin, Pillin, Pillin
TTITLE5=Chabelo - Coco No Hay
TTITLE6=Cepillin - Payasito De La Tele
TTITLE7=Cepillin - La Brujita
TTITLE8=Chabelo - Mamacita Donde Esta Santa Claus
TTITLE9=Cepillin - Las Notas Musicales
TTITLE10=Cepillin - Juan Pirulero
TTITLE11=Chabelo - Patatina
TTITLE12=Cepillin - Tamborileiro
TTITLE13=Cepillin - Las Mañanitas
TTITLE14=Chabelo - Cha Cha Cha Be Bop
EXTD=MS®
EXTT0=
EXTT1=
EXTT2=
EXTT3=
EXTT4=
EXTT5=
EXTT6=
EXTT7=
EXTT8=
EXTT9=
EXTT10=
EXTT11=
EXTT12=
EXTT13=
EXTT14=
PLAYORDER=
